Coordinates
version=1
nRows=7
nColumns=40
inDegrees=yes

Units are S.I. units (second, meters, Newtons, ...)
Angles are in degrees.

endheader
time	pelvis_tilt	pelvis_list	pelvis_rotation	pelvis_tx	pelvis_ty	pelvis_tz	hip_flexion_r	hip_adduction_r	hip_rotation_r	knee_angle_r	knee_angle_r_beta	ankle_angle_r	subtalar_angle_r	mtp_angle_r	hip_flexion_l	hip_adduction_l	hip_rotation_l	knee_angle_l	knee_angle_l_beta	ankle_angle_l	subtalar_angle_l	mtp_angle_l	lumbar_extension	lumbar_bending	lumbar_rotation	arm_flex_r	arm_add_r	arm_rot_r	elbow_flex_r	pro_sup_r	wrist_flex_r	wrist_dev_r	arm_flex_l	arm_add_l	arm_rot_l	elbow_flex_l	pro_sup_l	wrist_flex_l	wrist_dev_l
     42.52000000	     -4.49514664	     -3.82486844	      4.09034214	      0.93730866	      0.93225289	      0.50999328	     11.19188870	      3.12236867	    -16.38578617	     15.23597185	     15.23597185	     10.82049507	      1.28108989	     -4.34938081	     32.59380955	    -10.05782518	      2.58483202	     53.18596111	     53.18596111	      7.47039656	    -16.68719496	      9.83041022	     -9.51195697	      5.82963775	      2.50098025	     24.11604834	    -18.06059673	     -4.68568702	     73.02394234	     41.20814131	      0.00000000	      0.00000000	     -2.82263960	     -4.77336843	    -12.39994037	     30.78733977	     41.77165590	      0.00000000	      0.00000000
     42.53235714	     -4.55120248	     -3.94837725	      4.45570966	      0.93619952	      0.93237216	      0.51046310	     10.58637998	      3.36492016	    -16.64322429	     14.68390115	     14.68390115	     10.93694207	      1.47571460	     -4.29945261	     33.05413125	    -10.12158137	      2.16640815	     49.84748491	     49.84748491	      7.75619146	    -16.65352793	      9.49716784	     -9.50431626	      6.03786531	      2.45880416	     25.76090660	    -17.97215168	     -4.77002870	     74.65943061	     41.24193915	      0.00000000	      0.00000000	     -3.35190415	     -5.04166422	    -12.19007787	     30.41293867	     41.82668329	      0.00000000	      0.00000000
     42.54471429	     -4.67423726	     -3.98264120	      4.75841150	      0.93507846	      0.93235653	      0.51089500	     10.13914219	      3.48325630	    -16.88398201	     14.29354488	     14.29354488	     11.09077435	      1.62926368	     -4.30597103	     33.30975282	    -10.07186147	      1.57790092	     46.13047312	     46.13047312	      8.00216583	    -16.38975429	      9.41580033	     -9.41869650	      6.13410069	      2.64170317	     27.33672763	    -18.05416112	     -4.85153867	     75.96096424	     41.25115663	      0.00000000	      0.00000000	     -3.82237286	     -5.30208692	    -12.08808997	     30.05601350	     41.85825404	      0.00000000	      0.00000000
     42.55707143	     -4.73446295	     -4.14102866	      5.11381138	      0.93409018	      0.93226894	      0.51112105	      9.54326336	      3.69775614	    -17.54468153	     13.76128209	     13.76128209	     11.24676580	      2.44959027	     -4.35815098	     33.27111404	    -10.03639213	      1.14461146	     42.02759277	     42.02759277	      7.33281986	    -16.24380348	      7.22214166	     -9.43759016	      6.42103453	      2.88699822	     28.46272681	    -18.42145940	     -4.69915224	     78.70146718	     41.37278756	      0.00000000	      0.00000000	     -4.05873144	     -5.56241507	    -11.44870716	     29.17360221	     42.00645945	      0.00000000	      0.00000000
     42.56942857	     -4.76102863	     -4.19677125	      5.39305937	      0.93307634	      0.93221175	      0.51128916	      9.02738535	      3.83840745	    -17.77053407	     13.42762120	     13.42762120	     11.41373615	      2.55278846	     -4.35301220	     33.07384324	     -9.84130593	      0.72176240	     37.94918921	     37.94918921	      7.53738248	    -15.52092804	      7.28058634	     -9.47950077	      6.56225905	      3.01858388	     30.04193500	    -18.40035832	     -4.87655548	     79.88350032	     41.41337469	      0.00000000	      0.00000000	     -4.45932016	     -5.79958514	    -11.26334639	     28.76729969	     42.05254946	      0.00000000	      0.00000000
     42.58178571	     -4.85447291	     -4.30146602	      5.67080325	      0.93207590	      0.93190254	      0.51132456	      8.61735169	      3.99930634	    -18.05017248	     13.13762639	     13.13762639	     11.62159388	      2.79020851	     -4.40782233	     32.92924527	     -9.66081414	      0.34030705	     33.97052587	     33.97052587	      7.74546478	    -14.38990921	      7.54681517	     -9.40140351	      6.76441835	      3.17299224	     31.52700238	    -18.43210786	     -4.93521722	     81.03520329	     41.42828640	      0.00000000	      0.00000000	     -4.88369331	     -6.03082855	    -11.13640935	     28.41558698	     42.08142230	      0.00000000	      0.00000000
     42.59414286	     -4.91345760	     -4.40909947	      5.94153744	      0.93115660	      0.93156435	      0.51111755	      8.14469987	      4.14850722	    -18.43254032	     12.81509754	     12.81509754	     11.82761998	      3.17322631	     -4.45567076	     32.70804949	     -9.44164363	      0.01134077	     30.12894984	     30.12894984	      8.01209838	    -12.97021418	      7.81704443	     -9.40815545	      6.99213283	      3.22021733	     32.98600873	    -18.40508136	     -4.89264322	     82.37762162	     41.44126356	      0.00000000	      0.00000000	     -5.27881682	     -6.19158651	    -10.95087886	     28.06034313	     42.10947068	      0.00000000	      0.00000000
